<svg width="140" height="30" viewBox="0 0 559 150" fill="none" xmlns="http://www.w3.org/2000/svg">
<path fill-rule="evenodd" clip-rule="evenodd" d="M75.003 0.00300598C33.583 0.00300598 0.00300598 33.583 0.00300598 75.003C0.00300598 116.397 33.609 150.003 75.003 150.003C116.424 150.003 150.003 116.424 150.003 75.003H112.464C112.464 95.693 95.693 112.464 75.004 112.464C54.327 112.464 37.542 95.679 37.542 75.004C37.542 54.314 54.314 37.542 75.003 37.542V0.00300598Z" fill="#4A6CF7"/>
<path opacity="0.5" fill-rule="evenodd" clip-rule="evenodd" d="M149.994 0H86.834V21.055C86.8342 26.5852 87.9239 32.0612 90.0411 37.1701C92.1583 42.279 95.2613 46.9207 99.173 50.83C103.081 54.7398 107.722 57.8413 112.829 59.9575C117.936 62.0736 123.411 63.1628 128.939 63.163H149.995L149.994 0Z" fill="#4A6CF7"/>
<path d="M184.887 126V24.1445H224.945C232.693 24.1445 239.278 25.6257 244.701 28.5879C250.17 31.5501 254.34 35.6289 257.211 40.8242C260.082 46.0195 261.518 51.9896 261.518 58.7344C261.518 65.4792 260.059 71.4264 257.143 76.5762C254.226 81.7259 250.01 85.7591 244.496 88.6758C238.982 91.5469 232.305 92.9824 224.467 92.9824H206.352V126H184.887ZM206.352 75.7559H220.912C227.156 75.7559 231.781 74.1836 234.789 71.0391C237.842 67.849 239.369 63.7474 239.369 58.7344C239.369 53.6302 237.842 49.5286 234.789 46.4297C231.736 43.3307 227.087 41.7812 220.844 41.7812H206.352V75.7559ZM313.266 127.436C300.915 127.436 291.049 124.61 283.666 118.959C276.329 113.308 272.501 104.991 272.182 94.0078H293.031C293.396 99.112 295.401 102.963 299.047 105.561C302.738 108.113 307.387 109.389 312.992 109.389C318.461 109.389 322.836 108.227 326.117 105.902C329.444 103.578 331.107 100.548 331.107 96.8105C331.107 93.3926 329.604 90.7721 326.596 88.9492C323.588 87.0807 319.304 85.4857 313.744 84.1641L302.602 81.4297C294.034 79.3789 287.266 76.1204 282.299 71.6543C277.377 67.1426 274.916 61.127 274.916 53.6074C274.916 47.4551 276.579 42.0775 279.906 37.4746C283.233 32.8262 287.79 29.2259 293.578 26.6738C299.411 24.0762 306.042 22.7773 313.471 22.7773C321.036 22.7773 327.644 24.0762 333.295 26.6738C338.946 29.2715 343.344 32.8717 346.488 37.4746C349.678 42.0775 351.319 47.3867 351.41 53.4023H330.629C330.264 49.4375 328.578 46.3385 325.57 44.1055C322.562 41.8724 318.484 40.7559 313.334 40.7559C308.093 40.7559 304.06 41.8496 301.234 44.0371C298.409 46.179 296.996 48.9134 296.996 52.2402C296.996 55.8405 298.568 58.5749 301.713 60.4434C304.857 62.2663 308.64 63.7018 313.061 64.75L322.152 67.0059C328.077 68.3275 333.34 70.2643 337.943 72.8164C342.546 75.3229 346.169 78.5586 348.812 82.5234C351.456 86.4427 352.777 91.2279 352.777 96.8789C352.777 106.221 349.291 113.65 342.318 119.164C335.346 124.678 325.661 127.436 313.266 127.436ZM414.369 75.8242V92.6406H367.953V75.8242H414.369ZM450.395 126H427.289L462.494 24.1445H490.18L525.316 126H502.279L494.691 102.758H457.914L450.395 126ZM463.383 85.9414H489.223L476.713 47.3867H475.893L463.383 85.9414ZM558.949 24.1445V126H537.484V24.1445H558.949Z" fill="white"/>
</svg>
