<svg width="140" height="30" viewBox="0 0 559 150" fill="none" xmlns="http://www.w3.org/2000/svg">
<path fill-rule="evenodd" clip-rule="evenodd" d="M75.003 0.00300598C33.583 0.00300598 0.00300598 33.583 0.00300598 75.003C0.00300598 116.397 33.609 150.003 75.003 150.003C116.424 150.003 150.003 116.424 150.003 75.003H112.464C112.464 95.693 95.693 112.464 75.004 112.464C54.327 112.464 37.542 95.679 37.542 75.004C37.542 54.314 54.314 37.542 75.003 37.542V0.00300598Z" fill="#4A6CF7"/>
<path opacity="0.5" fill-rule="evenodd" clip-rule="evenodd" d="M149.994 0H86.834V21.055C86.8342 26.5852 87.9239 32.0612 90.0411 37.1701C92.1583 42.279 95.2613 46.9207 99.173 50.83C103.081 54.7398 107.722 57.8413 112.829 59.9575C117.936 62.0736 123.411 63.1628 128.939 63.163H149.995L149.994 0Z" fill="#4A6CF7"/>
<path d="M184.887 124V22.1445H224.945C232.693 22.1445 239.278 23.6257 244.701 26.5879C250.17 29.5501 254.34 33.6289 257.211 38.8242C260.082 44.0195 261.518 49.9896 261.518 56.7344C261.518 63.4792 260.059 69.4264 257.143 74.5762C254.226 79.7259 250.01 83.7591 244.496 86.6758C238.982 89.5469 232.305 90.9824 224.467 90.9824H206.352V124H184.887ZM206.352 73.7559H220.912C227.156 73.7559 231.781 72.1836 234.789 69.0391C237.842 65.849 239.369 61.7474 239.369 56.7344C239.369 51.6302 237.842 47.5286 234.789 44.4297C231.736 41.3307 227.087 39.7812 220.844 39.7812H206.352V73.7559ZM313.266 125.436C300.915 125.436 291.049 122.61 283.666 116.959C276.329 111.308 272.501 102.991 272.182 92.0078H293.031C293.396 97.112 295.401 100.963 299.047 103.561C302.738 106.113 307.387 107.389 312.992 107.389C318.461 107.389 322.836 106.227 326.117 103.902C329.444 101.578 331.107 98.5475 331.107 94.8105C331.107 91.3926 329.604 88.7721 326.596 86.9492C323.588 85.0807 319.304 83.4857 313.744 82.1641L302.602 79.4297C294.034 77.3789 287.266 74.1204 282.299 69.6543C277.377 65.1426 274.916 59.127 274.916 51.6074C274.916 45.4551 276.579 40.0775 279.906 35.4746C283.233 30.8262 287.79 27.2259 293.578 24.6738C299.411 22.0762 306.042 20.7773 313.471 20.7773C321.036 20.7773 327.644 22.0762 333.295 24.6738C338.946 27.2715 343.344 30.8717 346.488 35.4746C349.678 40.0775 351.319 45.3867 351.41 51.4023H330.629C330.264 47.4375 328.578 44.3385 325.57 42.1055C322.562 39.8724 318.484 38.7559 313.334 38.7559C308.093 38.7559 304.06 39.8496 301.234 42.0371C298.409 44.179 296.996 46.9134 296.996 50.2402C296.996 53.8405 298.568 56.5749 301.713 58.4434C304.857 60.2663 308.64 61.7018 313.061 62.75L322.152 65.0059C328.077 66.3275 333.34 68.2643 337.943 70.8164C342.546 73.3229 346.169 76.5586 348.812 80.5234C351.456 84.4427 352.777 89.2279 352.777 94.8789C352.777 104.221 349.291 111.65 342.318 117.164C335.346 122.678 325.661 125.436 313.266 125.436ZM414.369 73.8242V90.6406H367.953V73.8242H414.369ZM450.395 124H427.289L462.494 22.1445H490.18L525.316 124H502.279L494.691 100.758H457.914L450.395 124ZM463.383 83.9414H489.223L476.713 45.3867H475.893L463.383 83.9414ZM558.949 22.1445V124H537.484V22.1445H558.949Z" fill="black"/>
</svg>
